<?xml version="1.0" encoding="UTF-8" standalone="no"?>
<!-- Created with Inkscape (http://www.inkscape.org/) -->

<svg
   width="412.99463"
   height="434.0903"
   viewBox="0 0 109.27149 114.85306"
   version="1.1"
   id="svg1"
   xml:space="preserve"
   xmlns="http://www.w3.org/2000/svg"
   xmlns:svg="http://www.w3.org/2000/svg"><defs
     id="defs1" /><g
     id="g73"
     transform="translate(-1661.358,-609.59848)"><path
       d="m 1741.2079,723.31591 c 0.6462,0.008 1.3093,0.0137 1.9174,0.03 0.6554,0.0177 1.2494,0.0511 1.8513,0.0804 0.6584,0.0322 1.2313,0.0849 1.8135,0.13495 0.5987,0.0515 1.2802,0.0838 1.7844,0.15834 0.5604,0.0829 1.0582,0.18132 1.4842,0.29787 0.3811,0.10437 0.7303,0.21654 0.9896,0.35208 l 0.012,0.002 c 0.046,0.0238 0.073,0.0539 0.1137,0.08 0.5762,-0.80103 1.4596,-12.53552 1.1396,-13.02801 -0.6456,2.94107 -6.1053,8.23847 -11.0995,11.89204 z"
       style="opacity:1;fill:#03476e;fill-opacity:1;stroke:none;stroke-width:0.563041;stroke-dasharray:none"
       id="path58" /><path
       d="m 1712.1613,719.46606 c 0.1031,0.71886 0.6288,1.32018 1.4976,1.83032 4.3535,2.51085 17.8374,1.89442 27.549,2.01953 0.8197,-0.59968 1.7291,-1.28709 2.6992,-2.04525 0.7805,-0.61014 1.5784,-1.24739 2.3664,-1.91261 0.6985,-0.58984 1.3375,-1.18791 1.9824,-1.78961 0.5931,-0.55345 1.1777,-1.10027 1.68,-1.63971 0.4746,-0.5099 0.9096,-1.00991 1.2652,-1.48732 0.3622,-0.48593 0.6539,-0.94982 0.8543,-1.38182 0.4437,-0.95708 0.4529,-1.75977 -0.2027,-2.29061 v -0.006 c -1.0312,-0.83274 -3.0886,-1.36431 -5.7417,-1.74418 -4.4215,-0.63303 -10.4973,-0.84454 -16.2343,-1.32518 -2.0026,-0.16779 -3.9739,-0.3576 -5.8048,-0.62328 -1.569,-0.22653 -3.0551,-0.496 -4.3811,-0.83644 -1.1217,-0.28783 -2.1072,-0.63467 -2.984,-1.02802 -0.7298,-0.32737 -1.3938,-0.68236 -1.9126,-1.09725 -0.4453,-0.35597 -1.3165,-4.21868 -1.5807,-4.64808 -0.1881,-0.30587 -1.1654,19.2773 -1.0474,20.00543 z"
       style="opacity:1;fill:#0579c1;fill-opacity:1;stroke:none;stroke-width:0.563041;stroke-dasharray:none"
       id="path59" /><path
       d="m 1684.1925,612.4789 c -8.0923,-1.20933 -15.4658,-2.14624 -21.3839,-2.88037 l -0.2416,9.10981 -0.242,9.11046 -0.2416,9.11117 -0.2418,9.11191 -0.242,9.11331 -0.2416,9.11402 c 24.5406,-0.1908 72.4239,-0.71961 95.0117,5.88029 0.9835,0.28737 1.9166,0.58867 2.8,0.90373 0.8804,0.31394 1.7058,0.64235 2.4788,0.98498 0.791,0.35078 1.5232,0.71711 2.1934,1.09922 0.6948,0.39626 1.3272,0.80868 1.8825,1.2401 0.5779,0.44876 1.0923,0.91292 1.5086,1.40134 0.4809,0.56428 0.8424,1.15775 1.0924,1.77734 0.034,-0.0854 0.1786,3.48407 0.2122,3.39859 14.222,-48.97709 -47.3962,-62.29477 -84.3448,-68.47589 z"
       style="opacity:1;fill:#0579c1;fill-opacity:1;stroke:none;stroke-width:0.563041;stroke-dasharray:none"
       id="path60" /><path
       d="m 1756.3697,670.1495 c -16.1695,13.96537 -39.9221,19.46551 -42.967,28.53275 -0.3433,0.99115 -0.3704,1.89666 -0.1648,2.96663 0.02,0.10424 0.028,0.20657 0.053,0.31177 0.087,0.34672 0.2434,0.66459 0.4317,0.97046 0.2641,0.42941 0.6205,0.82178 1.0656,1.17777 0.5188,0.41489 1.1829,0.76989 1.9126,1.09725 0.8768,0.39337 1.8623,0.74016 2.984,1.02803 1.326,0.34033 2.8122,0.60877 4.3811,0.83644 1.831,0.26536 3.8022,0.45549 5.8049,0.62325 12.6871,-5.1336 28.6821,-11.37542 36.0489,-21.72745 0.8994,-1.25711 1.6552,-2.55704 2.2476,-3.90746 0.6928,-1.64762 0.7068,-3.14159 0.1575,-4.50273 -0.2501,-0.6196 -0.6115,-1.21306 -1.0925,-1.77734 -0.4162,-0.48843 -0.9307,-0.95258 -1.5084,-1.40134 -0.5555,-0.43142 -1.1877,-0.84384 -1.8827,-1.2401 -0.6701,-0.38213 -1.4022,-0.74845 -2.1934,-1.09922 -0.7728,-0.34263 -1.5984,-0.67105 -2.4787,-0.98498 -0.8834,-0.31506 -1.8165,-0.61637 -2.8,-0.90373 z"
       style="opacity:1;fill:#03476e;fill-opacity:1;stroke:none;stroke-width:0.563041;stroke-dasharray:none"
       id="path61" /></g></svg>
