<svg xmlns="http://www.w3.org/2000/svg" width="400" height="400" version="1.0" viewBox="0 0 300 300">
  <path d="M152.2 8c-2.9.4-5.5 1-5.6 1.1-.2.2-1.6 2.8-3.1 5.8l-2.7 5.4 3.2-.7c1.8-.3 4.8-.6 6.6-.6 3 0 3.6-.5 5.9-5 2.6-5 3.1-7.1 1.8-6.9-.5.1-3.2.5-6.1.9zM172.7 12.5c-1.4 3-2.3 5.6-1.9 5.9.4.2 3.6.6 7.2.7l6.5.4 2.6-5.5c3.1-6.5 2.8-6.8-6.1-6.9l-5.6-.1-2.7 5.5zM204.1 15.9c-1.9 4.4-2.6 7.1-1.8 7.1.1 0 3.3.9 7 1.9l6.8 2 1.8-4.2c3.7-8.6 3.8-8.2-2.9-10-3.3-.9-6.6-1.7-7.4-1.7-.7 0-2.3 2.2-3.5 4.9zM126.5 13.9c-4.4 1.4-5.3 2.2-7.9 7-2.1 3.9-2.5 5.3-1.4 4.8.9-.3 3.5-1.1 5.8-1.8 3.5-1.1 4.5-2 6.6-6.2 1.4-2.7 2.4-5 2.2-5.2-.2-.1-2.5.5-5.3 1.4zM235.1 26.6c-1.1 3.1-2.1 5.8-2.1 6 0 .5 11.7 6.4 12.8 6.4.4 0 1.8-2.7 3-6l2.1-6-5.9-3c-3.3-1.7-6.3-3-6.8-3s-1.9 2.5-3.1 5.6zM104 24.4c-3 2-9.1 10.6-7.6 10.6.3 0 2.2-.8 4.2-1.7 2.5-1.2 4.3-3.2 6-6.5 2.8-5.4 2.3-5.8-2.6-2.4zM133.5 27.4c-16.8 3.2-28.4 7.2-39.6 13.7L87.2 45 76.9 63.2c-5.6 10.1-18.3 32.4-28.1 49.7-9.8 17.3-17.6 31.6-17.5 31.8.2.1 3.7-.4 7.8-1.3 9.1-2 31.9-1.4 47.9 1.1 22.7 3.6 48.5 10.8 71.5 19.9 7.7 3.1 14.3 5.2 14.6 4.8.4-.4 11.8-28.2 25.3-61.7 13.4-33.6 25.2-62.7 26.1-64.8 1.5-3.6 1.5-3.8-.7-4.6-11.7-4.3-21.1-7-34.4-9.7-10.7-2.2-46.1-2.9-55.9-1zm33 15.6c19.8 2.3 25.7 10.3 18.3 25.1-4.1 8.3-16.1 20.5-23.9 24.2-7 3.4-16.6 6.7-19.3 6.7-1.8 0-1.6.4 1.3 3.4 1.7 1.8 3.8 5.3 4.6 7.8 1.4 4.8 4 33.6 3.1 34.5-.7.7-18.9-1.6-19.8-2.5-.4-.4-1.2-6.6-1.9-13.7-1.4-15.2-3.2-20.6-8-23-4.2-2.2-28-4-29.2-2.2-.4.7-4.4 8.1-8.8 16.6l-8.2 15.3-6.1-.7c-3.3-.3-6.5-1-6.9-1.4-.4-.4 8.8-20.1 20.5-43.7l21.3-42.9 6-.8c5-.6 36.6-3.1 45.5-3.6 1.4 0 6.6.4 11.5.9z"/>
  <path d="m120 57.9-4.5.6-8.4 15.8c-5.6 10.8-8 16.2-7.3 16.9.6.6 6.7.9 16.4.6 17-.5 22.7-1.9 31.3-7.8 5.4-3.7 11.3-12.2 12.2-17.3.4-3 .1-4-2.1-6-1.4-1.4-4-2.7-5.7-3.1-3.8-.7-25.6-.5-31.9.3zM87.4 37.2c-3.2 3.4-6.4 8.2-6.4 9.5 0 1.5 6.3-5.4 8.1-9 1.1-2 1.8-3.7 1.6-3.7-.2 0-1.7 1.5-3.3 3.2zM262.1 43.2c-1.1 3.4-2 6.2-1.8 6.3.1 0 2.1 1.7 4.5 3.8 2.3 2 4.6 3.7 5.1 3.7.9 0 4.1-8.3 4.1-10.8 0-1.3-7.8-9.1-9.2-9.2-.3 0-1.6 2.8-2.7 6.2zM236.8 49.2c-2.6 6.9-20.9 54.2-31.3 81.3-16.1 41.9-17.8 46.5-17.4 46.8.2.1 3.8 2 7.9 4.1 15.8 8.2 32.9 20.4 44 31.5 10.8 10.7 14.9 16.7 17.4 25l1.3 4.5 2.1-6.9c1.1-3.9 4.8-16.2 8-27.5 3.3-11.3 9.9-33.8 14.6-50 4.8-16.2 9-32.2 9.3-35.6.7-7.6-1.8-20.4-5.7-29.1-7.8-17.3-22.8-33.3-41.6-44.6-3.4-2-6.3-3.7-6.6-3.7-.2 0-1.1 1.9-2 4.2zm26.5 50.9c10.3 18.9 13.7 28.1 13.7 37.1 0 12-5.1 22.8-10.7 22.8-2.4 0-2.5.1-2.2 6.7.5 11.3-.1 28.7-1 30.2-.7 1.1-1.3 1-3.5-.4l-2.7-1.8.3-16.6c.3-16.4.3-16.6-2.4-21.1-1.4-2.5-4.4-6.2-6.6-8.3l-3.9-3.8-3.8 10.3c-2.1 5.7-4.6 12.7-5.7 15.5-1.1 2.9-2.4 5.3-3 5.3-1.7 0-8.8-6.1-8.8-7.6 0-.7 3-9.6 6.6-19.6 3.6-10.1 10.1-28.2 14.5-40.3 4.4-12.1 8.1-22.6 8.4-23.3.2-.6.8-1.2 1.2-1.2.4 0 4.8 7.3 9.6 16.1z"/>
  <path d="m252.7 121.7-4.6 12.7 5.5 6.8c3 3.7 6.3 7.2 7.4 7.8 6.5 3.5 11.4-11 7.5-21.9-1.7-4.8-9.4-18.1-10.5-18.1-.4 0-2.8 5.7-5.3 12.7zM74.4 52.2c-.4.7-.3.8.4.4 1.2-.7 1.6-1.6.8-1.6-.3 0-.8.5-1.2 1.2zM75.1 55.3c-2 1.8-2.3 1.9-1.8.4.4-1.1.3-1.6-.3-1.2-.6.4-.9 1.2-.8 2 .2.7-1.7 4.1-4.3 7.6-2.5 3.5-12.6 20.6-22.6 37.9-9.9 17.3-20.6 35.8-23.6 41-3.1 5.2-5.4 9.6-5.3 9.8.2.1 2-.8 4-2 3-1.9 7.8-9.6 30.7-49.6C66 75.1 78 53.6 77.8 53.4c-.2-.2-1.5.7-2.7 1.9zM283.6 58.8c-.4.6-1.3 3.3-2.1 5.9-1.4 4.7-1.4 4.8 1.7 9.7l3.2 4.9 1.9-5.7c1.5-4.6 1.7-6.2.8-8.4-1.8-4.3-4.7-7.6-5.5-6.4zM293.6 84.9c-1.9 6.4-1.9 8.6-.3 12.5l1.3 2.9 1.6-5.4c1.5-4.7 1.6-6 .4-10.4l-1.3-5-1.7 5.4zM296 109.4c-.7 2.4-1 5-.8 5.8.3.7 1-1.1 1.7-4.1 1.4-6.6.8-7.8-.9-1.7zM33.5 150.9c-2.3.5-3.7 1.9-6.7 7.1-2.1 3.5-3.6 6.6-3.3 6.8.2.2 1.9.2 3.7-.2 2.8-.5 3.9-1.7 7-7.1 2-3.6 3.4-6.6 3-6.8-.4-.2-2-.1-3.7.2zM44.5 156.6c-2 3.7-3.3 6.9-3 7.2.3.3 2.6.6 5.2.6l4.6.1 3.9-7.3 4-7.2h-11l-3.7 6.6zM68.8 159.4c-4.3 8.6-4.9 7.4 5 9.5l4.3.9L82 162c2.2-4.4 3.6-8.1 3.1-8.5-.5-.3-3.6-.8-6.8-1.1l-5.8-.6-3.7 7.6zM19.8 155.1c-1.7.9-8.2 11.8-7.5 12.5 1.2 1.2 3.9-1.4 6.7-6.3 3.3-5.8 3.6-7.8.8-6.2zM101.6 159.9c-.8 1.5-2.6 5.3-3.9 8.4l-2.5 5.6 7 2.1c3.9 1.2 7.6 1.9 8.2 1.7 1.3-.5 8.2-15.4 7.5-16.2-.2-.2-3.7-1.3-7.7-2.4l-7.2-2-1.4 2.8zM9.8 164.2c-.8 1.3-2 3.4-2.7 4.8-1.2 2.4-1.1 2.4.4.5 1.9-2.3 4.8-7.5 4.1-7.5-.2 0-1 1-1.8 2.2zM24.6 177.5c-6.8 12.4-7 11 2.7 21.9 6.5 7.4 26.1 24.1 28.3 24.1 1.2 0 26-48.3 25.2-49-1.5-1.5-27.9-6-41.8-7.1l-8.6-.6-5.8 10.7zM15.3 169.3c-3.2.7-4.3 1.5-4.3 2.9 0 2.2 3.9 11.8 4.9 11.8.3 0 2.5-3.6 4.9-8l4.3-8-2.8.1c-1.5.1-4.7.6-7 1.2zM136.1 170.2c-.5 1.3-2.1 5-3.6 8.2-1.4 3.2-2.2 6.2-1.8 6.6 2 1.7 15.5 6.1 16.3 5.4 1.1-1.2 7.3-16.4 6.9-16.8-.7-.6-15-5.6-16-5.6-.5 0-1.3 1-1.8 2.2zM4.1 178.1c-1.2 2.1-2.1 4.6-1.9 5.4.2.9 1.5-.6 3.1-3.4 1.5-2.7 2.4-5.2 1.9-5.5-.5-.3-1.9 1.3-3.1 3.5zM72.6 201.6c-6.9 14-12.6 25.7-12.6 25.8 0 1.4 46.3 29.7 47.2 28.8.3-.4 5.2-11.4 10.8-24.5 8-18.5 10-24 9.1-25.1-.6-.8-6-5.1-11.9-9.7s-14-11.1-18-14.6c-4.4-3.8-8.2-6.3-9.6-6.3-2 0-3.9 3.2-15 25.6zM100.4 180.4c2.3 1.8 3.6 2 3.6.6 0-.6-.4-1-.9-1s-1.8-.3-2.8-.6c-1.6-.5-1.6-.4.1 1zM5.7 184.7c-1.6 3.1-2.3 5.4-1.8 6.2 1.3 2 6.5-7.3 5.4-9.4-.8-1.3-1.5-.6-3.6 3.2zM108.9 183.6c-.9 1.1-1 2-.2 3.2 1.4 2.4 3.4 2.1 4.4-.5 1.1-3-2.2-5.1-4.2-2.7zM169.8 190.9l-3.5 8.8 7.8 3.9c4.9 2.3 8.2 3.4 8.8 2.9 1-1.2 6.1-14.6 6.1-16.1 0-.8-13.8-8.4-15.3-8.4-.2 0-1.9 4-3.9 8.9zM9.1 190.9c-2.1 4-2.2 7.1-.4 7.1.4 0 1.8-1.8 3-3.9 1.9-3.3 2-4.1.9-5.7-1.3-1.7-1.5-1.5-3.5 2.5zM117.2 190.4c-.9 2-.7 2.7.8 4.1 1.8 1.7 2 1.6 3.1-.8.9-2.1.9-3-.1-4.2-1.7-2.1-2.5-1.9-3.8.9zM13.1 197.9c-1.5 2.9-1.7 4.1-.8 5 .6.6 1.4 1.1 1.7 1.1 1.2 0 4.2-7 3.7-8.4-1-2.6-2.5-1.8-4.6 2.3zM125.2 197.5c-1 2.1-.9 2.6.7 3.4 1.5.8 2 .6 2.9-1.3.7-1.7.7-2.7-.1-3.5-1.6-1.6-2.3-1.4-3.5 1.4zM203 208c-1.8 5-3.1 9.2-2.9 9.3 3.7 2.5 13.1 7.8 13.3 7.6.2-.2 1.6-4.2 3.1-8.8l2.8-8.4-2.9-2.1c-1.5-1.2-4.4-3.1-6.5-4.3l-3.7-2.3-3.2 9zM19.7 204.6c-1.4 2.8-1.5 3.9-.6 5 1.7 2.1 2.4 1.8 4.2-2.2 1.4-2.8 1.5-3.9.6-5-1.7-2.1-2.4-1.8-4.2 2.2zM132.2 203.4c-.9 2-.8 2.7.4 3.7 1.3 1 1.7 1 2.5-.2 1.1-1.8.8-5.1-.7-5.6-.6-.2-1.6.8-2.2 2.1zM138.4 209.6c-.9 3.5 1 5.3 2.6 2.4 1.2-2.3.7-5-.9-5-.6 0-1.4 1.2-1.7 2.6zM26.7 211.6c-1.4 2.8-1.5 3.9-.6 5 1.7 2.1 2.4 1.8 4.2-2.2 1.4-2.8 1.5-3.9.6-5-1.7-2.1-2.4-1.8-4.2 2.2zM121 235.2l-10.4 24.2 2.9 2c1.5 1.2 7.1 5.3 12.4 9.3 5.3 3.9 9.9 6.8 10.3 6.5.4-.4 4.3-10.1 8.8-21.5l8.2-20.8-2.7-4c-2.8-4.3-17.3-19.9-18.4-19.9-.4 0-5.4 10.9-11.1 24.2zM143.6 214.5c-.7 2.8 0 4.9 1.3 4 1.5-.9 1.9-4.4.6-5.5-1-.8-1.4-.4-1.9 1.5zM34.3 218.6c-1.5 3.1-1.5 3.6-.3 4.4 2.3 1.5 2.8 1.2 4.5-2.1 1.3-2.4 1.4-3.4.4-4.5-1.8-2.2-2.8-1.7-4.6 2.2zM147.7 219.9c-.2 1-.1 2.5.4 3.2.6 1 1 .7 1.7-1.1.5-1.4.8-2.8.5-3.3-.8-1.3-2.1-.7-2.6 1.2zM228.7 226.2l-2.7 8.3 4.3 3.7c2.3 2 4.5 3.7 4.8 3.8.3 0 1.7-3.8 3.1-8.4l2.5-8.5-3.6-3.5c-2-2-4.1-3.6-4.7-3.6-.5 0-2.2 3.7-3.7 8.2zM42.6 224.7c-.9 2-1.6 3.6-1.4 3.7.2.1 1.1.7 2 1.5 1.4 1.1 1.9.8 3.2-1.8 2-3.8 2-4.4-.3-5.8-1.6-1-2-.7-3.5 2.4zM151.6 223.5c-.9 2.4-.7 4.5.3 4.5 1.2 0 2.2-4.3 1.2-5.3-.5-.5-1.1-.1-1.5.8zM154.8 226.6c-.5.4-.8 1.9-.8 3.3.1 2.3.2 2.4 1.1.8 1.1-1.9.9-5.3-.3-4.1zM50.9 231.1c-1.1 2.8-1 3.3.6 4.6 1.8 1.2 2.1 1 3.7-1.9 1.5-3 1.6-3.4 0-4.6-2.3-1.8-2.8-1.5-4.3 1.9zM35.7 237.5c-4.2 8.5-4.4 9.5-1.9 9.5.9 0 5.4 1.5 10 3.4l8.3 3.4 2.9-5.9 3-5.8-8.3-5.7c-4.5-3.1-8.7-5.8-9.2-6-.6-.3-2.7 3-4.8 7.1zM156.7 230.7c-.4.3-.7 1.6-.6 2.7 0 1.9.1 1.9 1-.3 1-2.4.8-3.6-.4-2.4zM60 236.9c-2.2 5.4 1.8 7.3 4.5 2.1 1.4-2.7 1.4-3-.4-4-2.7-1.4-2.7-1.4-4.1 1.9zM157.7 235.4c-.9 2.4-.9 2.8.3 2.1.6-.3 1-.1 1 .6s.2 1 .5.7c.3-.3.2-1.5-.3-2.8-.8-2-.9-2.1-1.5-.6zM245.6 242.2l-2.5 8.1 2.4 3.4 2.3 3.5 2.5-8.2 2.5-8.2-2-3.4c-1.1-1.9-2.1-3.4-2.3-3.4-.2 0-1.5 3.7-2.9 8.2zM153.7 238.7c-.9 1.5-15.7 39.4-15.7 40.3 0 1.2 4.3 7.9 5.1 8 .8 0 13.7-33.4 14.5-37.7.9-4.6-2.3-13.2-3.9-10.6zM69.1 242.6c-.9 2-.9 3 0 4 1.8 2.1 3.5 1.7 4.8-1.3 1.1-2.3 1-2.9-.5-4-2.5-1.8-2.9-1.7-4.3 1.3zM58.2 248.5c-1.2 2.5-2.2 5.1-2.2 5.8 0 .6 2.8 2.7 6.3 4.5 9.3 5 10.3 5.8 8.7 7.7-.8.9-.9 1.9-.4 2.4C72 270.1 92.9 279 94.4 279c.7 0 2.4-2.7 3.9-6l2.6-6-7.2-4.2c-4-2.2-8.9-5.2-10.9-6.5-2.1-1.2-4-2.3-4.2-2.3-.3 0-4.2-2.2-8.8-5-4.6-2.7-8.5-5-8.9-5-.3 0-1.5 2-2.7 4.5zM78.8 248.5c-.8 1.9-.8 2.8.2 4 1.8 2.2 2.8 1.9 4.5-1.5 1.4-2.7 1.4-3-.4-4-2.7-1.4-3-1.3-4.3 1.5zM31.6 250.5c-.3.8-.1 1.5.3 1.5.5 0 1.1-.7 1.5-1.5.3-.8.1-1.5-.3-1.5-.5 0-1.1.7-1.5 1.5zM34.6 251.5c-.3.9 0 1.5.9 1.5.8 0 1.5-.7 1.5-1.5s-.4-1.5-.9-1.5-1.1.7-1.5 1.5zM254.5 251.1c-2.6 7-4.6 17.3-3.1 15.8.9-.8 4.7-16.2 4.2-16.7-.3-.3-.8.1-1.1.9zM39.6 252.6c-.9 2.2-.8 2.4.9 2.4.8 0 1.5-.6 1.5-1.4 0-2.2-1.7-2.8-2.4-1zM89 252.9c-1.5 2.9-1.2 4.9.9 6 1.5.8 2 .6 3-1.5 1.5-3.3 1.4-3.7-.9-5.1-1.6-1.1-2.1-1-3 .6zM32.3 254.7c.4.3 1 .3 1.4 0 .3-.4 0-.7-.7-.7s-1 .3-.7.7zM44.7 255.5c-.7 1.6.8 2.9 2.3 2 1.5-.9 1.2-3.5-.4-3.5-.8 0-1.6.7-1.9 1.5zM35 256c0 .5.5 1 1 1 .6 0 1-.5 1-1 0-.6-.4-1-1-1-.5 0-1 .4-1 1zM38.5 256.9c-.6 1.1.9 2.3 1.9 1.4.9-.9.7-2.3-.3-2.3-.6 0-1.2.4-1.6.9zM51 257.9c-.7 1.5-.6 2 .7 2.5 1.5.6 3.2-.8 3.3-2.5 0-1.7-3.1-1.6-4 0zM97.8 259.6c-1.1 2.3-1 2.8.7 4.1 1.8 1.3 2.1 1.2 3.2-1.4.8-1.9.8-3.2.1-4.1-1.6-1.9-2.7-1.5-4 1.4zM42 259.5c0 .8.5 1.5 1 1.5.6 0 1-.7 1-1.5s-.4-1.5-1-1.5c-.5 0-1 .7-1 1.5zM46 261.5c0 .8.4 1.5.9 1.5s1.1-.7 1.5-1.5c.3-.9 0-1.5-.9-1.5-.8 0-1.5.7-1.5 1.5zM57.4 261.1c-.3.6-.1 1.6.5 2.2.9.9 1.4.8 2.1-.3.5-.8 1-1.8 1-2.3 0-1.1-2.8-.8-3.6.4zM50.6 263.5c-.3.9 0 1.5.9 1.5.8 0 1.5-.7 1.5-1.5s-.4-1.5-.9-1.5-1.1.7-1.5 1.5z"/>
  <path d="M63.4 263.3c-.9 2.4.6 4.4 1.8 2.2.7-1.1.6-2.1-.1-2.8-.7-.7-1.2-.6-1.7.6zM106 264.6c-1.1 2.9-.6 4.4 1.5 4.4 1.6 0 3.1-4.3 2-5.9-1.1-1.8-2.5-1.2-3.5 1.5zM55.5 265c-.4.6-.3 1.6.3 2.2.6.6 1.2.6 1.7-.2.4-.6.3-1.6-.3-2.2-.6-.6-1.2-.6-1.7.2zM66.9 267.8c-.7 1.5-1.5 3-1.7 3.4-.2.5.1.8.7.8s1.1-.7 1.1-1.5.4-1.5.9-1.5c1.2 0 2.2-2.8 1.2-3.4-.4-.3-1.4.7-2.2 2.2zM247.1 270.1c-1.3 4.2-.9 6.1 1 4.2 1.4-1.4 2.4-8.3 1.2-8.3-.5 0-1.5 1.8-2.2 4.1zM60.5 268.1c-.4.6-.5 1.3-.2 1.6.7.7 2.7-.6 2.7-1.8 0-1.2-1.7-1.2-2.5.2zM113 269.1c-.9 1.5-.8 2.4.1 3.5 1.1 1.3 1.4 1.2 2.6-1.1 1.4-2.5 1-4.5-.7-4.5-.5 0-1.4.9-2 2.1zM100.2 273.3c-1.2 2.9-2.2 5.7-2.2 6.4 0 1.1 15.7 7.3 18.6 7.3 1.3 0 5.1-6.8 4.2-7.4-2.1-1.6-10.3-6.9-13.8-8.9l-4.5-2.6-2.3 5.2zM70.5 272c-.4.6-.3 1.6.3 2.2.6.6 1.2.6 1.7-.2.4-.6.3-1.6-.3-2.2-.6-.6-1.2-.6-1.7.2zM119.2 273.4c-.8 1.9-.8 2.7.2 3.5 1 .8 1.6.5 2.5-1.5 1.1-2.5.8-4.4-.8-4.4-.4 0-1.3 1.1-1.9 2.4zM75.7 274.7c-1.2 1.1-.8 2.3.8 2.3.8 0 1.5-.7 1.5-1.5 0-1.6-1.2-2-2.3-.8zM124.5 277c-1 3.2.6 4.6 2.1 1.9 1.7-3.1 1.7-3.9 0-3.9-.8 0-1.7.9-2.1 2zM80.7 276.7c-1.2 1.1-.8 2.3.8 2.3.8 0 1.5-.7 1.5-1.5 0-1.6-1.2-2-2.3-.8zM85.5 279.1c-.4.6-.5 1.3-.2 1.6.7.7 2.7-.6 2.7-1.8 0-1.2-1.7-1.2-2.5.2zM129.1 280.2c-.9 2.4-.5 4.2.8 3.3 1.3-.8 2-4.4 1-5.1-.5-.3-1.3.5-1.8 1.8zM90 281.5c0 .9.5 1.5 1.1 1.3.6-.2 1.1-.8 1.1-1.3s-.5-1.1-1.1-1.3c-.6-.2-1.1.4-1.1 1.3zM121.3 284.1c-.7 1.8-1 3.5-.8 3.9.6.9 13.5 3.3 14.2 2.6.5-.4-10.7-9.6-11.7-9.6-.3 0-1.1 1.4-1.7 3.1zM132.6 282.6c-1.1 2.8-.6 3.9.9 2 .8-1.1 1.5-2.3 1.5-2.8 0-1.4-1.8-.9-2.4.8zM95 283.5c0 .8.5 1.5 1 1.5.6 0 1-.7 1-1.5s-.4-1.5-1-1.5c-.5 0-1 .7-1 1.5zM135 285.1c-1.3 2.4-.4 4.1 1 1.9 1-1.6 1.3-4 .5-4-.2 0-.9.9-1.5 2.1zM99 285.5c0 .8.4 1.5.9 1.5s1.1-.7 1.5-1.5c.3-.9 0-1.5-.9-1.5-.8 0-1.5.7-1.5 1.5zM103.6 286.5c-.3.8-.1 1.7.3 2 .5.3 1.1-.2 1.5-1 .3-.8.1-1.7-.3-2-.5-.3-1.1.2-1.5 1zM137.7 286.7c-.4.3-.7 1.3-.7 2.2.1 1.3.3 1.3 1.1-.2 1.1-1.9.8-3.3-.4-2zM107.5 288.1c-.4.6-.5 1.3-.2 1.6.7.7 2.7-.6 2.7-1.8 0-1.2-1.7-1.2-2.5.2zM139.2 289.6c-.7 1.4-.8 2.3-.3 2 .5-.4 1.1 0 1.3.6.3.7.5-.2.5-2 0-1.7-.1-3.2-.2-3.2s-.7 1.2-1.3 2.6zM111.7 288.7c-1 .9-.9 2.3.2 2.3.5 0 1.1-.7 1.5-1.5.5-1.5-.5-2-1.7-.8zM115.6 289.9c-.4.7-.5 1.5-.2 1.8.9.9 1.9-.4 1.4-1.8-.4-1.1-.6-1.1-1.2 0zM118.7 290.7c-.4.3-.7 1.1-.7 1.7 0 .6.5.5 1.2-.2.6-.6.9-1.4.7-1.7-.3-.3-.9-.2-1.2.2zM121.7 291.7c-.4.3-.7 1.1-.7 1.7 0 .6.5.5 1.2-.2.6-.6.9-1.4.7-1.7-.3-.3-.9-.2-1.2.2zM124.7 292.7c-.4.3-.7 1.1-.7 1.7 0 .6.5.5 1.2-.2.6-.6.9-1.4.7-1.7-.3-.3-.9-.2-1.2.2zM127.7 292.6c-.4.4-.7 1.4-.7 2.3 0 1.1.3 1.2 1.1.4.6-.6 1-1.6.7-2.3-.2-.6-.7-.8-1.1-.4zM130 294.5c0 .8.2 1.5.4 1.5s.6-.7 1-1.5c.3-.8.1-1.5-.4-1.5-.6 0-1 .7-1 1.5zM132.7 294.3c-.4 1-.7 2-.7 2.1 0 1.1 5.4-.3 5.8-1.4.3-1.3.2-1.2-.7 0-1 1.3-1.1 1.3-1.1 0s-.2-1.3-.9-.1c-.7 1.1-1 1-1.3-.5-.3-1.8-.4-1.8-1.1-.1z"/>
</svg>
