<?xml version="1.0" standalone="no"?>
<!DOCTYPE svg PUBLIC "-//W3C//DTD SVG 20010904//EN"
 "http://www.w3.org/TR/2001/REC-SVG-20010904/DTD/svg10.dtd">
<svg version="1.0" xmlns="http://www.w3.org/2000/svg"
 width="700.000000pt" height="700.000000pt" viewBox="0 0 700.000000 700.000000"
 preserveAspectRatio="xMidYMid meet">
<metadata>
Created by potrace 1.14, written by Peter Selinger 2001-2017
</metadata>
<g transform="translate(0.000000,700.000000) scale(0.100000,-0.100000)"
fill="#000000" stroke="none">
<path d="M3689 6836 c-2 -2 -26 -7 -54 -10 -27 -4 -57 -9 -65 -11 -8 -2 -36
-6 -63 -10 -83 -10 -88 -14 -152 -140 -77 -150 -74 -139 -34 -131 56 12 90 16
167 21 43 2 84 10 98 20 24 16 124 206 124 237 0 16 -13 31 -21 24z"/>
<path d="M4046 6741 c-25 -53 -50 -111 -55 -129 -9 -30 -8 -34 14 -42 14 -5
80 -12 147 -15 68 -4 129 -8 136 -10 12 -4 73 108 107 198 18 47 18 49 -1 68
-18 17 -37 20 -161 23 l-141 4 -46 -97z"/>
<path d="M4817 6723 c-40 -45 -116 -238 -100 -254 5 -4 42 -17 83 -28 41 -10
113 -30 158 -44 l84 -25 20 47 c87 198 94 232 56 252 -27 15 -234 68 -264 69
-11 0 -28 -8 -37 -17z"/>
<path d="M2965 6680 c-66 -22 -100 -39 -126 -65 -37 -35 -128 -200 -116 -211
3 -3 50 8 105 25 118 37 143 57 200 169 40 77 51 113 35 111 -5 0 -49 -13 -98
-29z"/>
<path d="M5538 6488 c-30 -46 -98 -216 -98 -244 0 -16 283 -159 297 -151 21
13 125 270 113 280 -12 9 -257 126 -276 131 -16 5 -25 0 -36 -16z"/>
<path d="M2469 6457 c-55 -34 -99 -76 -149 -142 -56 -75 -83 -122 -72 -129 19
-11 152 65 185 107 57 70 109 187 84 187 -7 0 -28 -10 -48 -23z"/>
<path d="M3367 6384 c-1 -1 -45 -4 -97 -8 -111 -7 -224 -26 -370 -62 -117 -28
-264 -70 -295 -84 -11 -4 -63 -25 -115 -45 -187 -72 -453 -223 -477 -270 -9
-16 -165 -293 -346 -615 -182 -322 -337 -596 -344 -610 -8 -14 -24 -43 -37
-65 -243 -430 -373 -662 -427 -761 -21 -39 -58 -106 -83 -150 -24 -43 -42 -82
-40 -85 2 -3 25 -3 51 2 26 4 66 11 88 14 22 4 43 9 47 11 18 12 180 19 408
19 272 0 405 -7 575 -30 22 -3 58 -8 80 -10 60 -8 208 -34 315 -56 52 -11 107
-22 121 -24 53 -10 357 -87 494 -127 264 -75 530 -165 780 -263 114 -45 319
-115 335 -115 6 0 18 24 76 155 7 17 33 82 59 145 25 63 50 124 55 135 5 11
20 47 34 80 118 291 174 429 273 675 63 157 121 299 128 315 7 17 25 62 40
100 14 39 32 84 40 100 7 17 81 201 164 410 152 380 162 404 186 460 47 105
175 437 175 453 0 11 -8 22 -17 25 -10 3 -56 20 -103 37 -174 64 -420 133
-639 179 -162 35 -241 44 -486 57 -113 6 -642 13 -648 8z m437 -379 c114 -12
141 -15 166 -20 14 -3 36 -7 49 -10 106 -20 218 -68 279 -120 175 -151 68
-474 -264 -796 -114 -110 -205 -176 -319 -230 -117 -55 -320 -126 -388 -135
-26 -4 -47 -10 -47 -15 0 -4 22 -34 50 -66 101 -118 122 -185 155 -485 13
-124 16 -159 20 -228 12 -177 14 -236 8 -258 -5 -23 -7 -24 -90 -17 -46 4 -94
8 -106 10 -12 2 -44 6 -72 10 -44 5 -77 10 -138 21 -59 10 -66 26 -82 179 -3
33 -8 71 -10 85 -2 14 -6 57 -10 95 -8 89 -14 134 -20 165 -5 28 -15 85 -20
115 -7 45 -35 119 -59 156 -54 81 -113 101 -406 135 -66 7 -318 13 -340 7 -16
-4 -26 -21 -132 -223 -39 -74 -87 -164 -106 -200 -19 -36 -56 -105 -83 -155
-26 -49 -58 -109 -71 -133 l-23 -44 -70 6 c-91 8 -209 26 -225 36 -17 10 39
138 237 550 297 615 721 1463 736 1472 15 8 91 17 262 33 39 4 86 8 105 10 19
2 78 6 130 10 52 4 106 8 120 10 14 2 68 7 120 10 52 4 113 9 135 11 22 1 92
6 155 9 63 4 116 8 118 10 5 4 163 -3 236 -10z"/>
<path d="M3027 5664 c-1 -1 -51 -4 -112 -8 -137 -7 -207 -16 -219 -27 -31 -29
-355 -673 -363 -722 -5 -33 -3 -37 23 -43 15 -4 105 -7 199 -7 493 0 669 36
873 176 161 111 302 328 302 466 0 38 -60 99 -134 135 l-60 29 -253 2 c-140 0
-255 0 -256 -1z"/>
<path d="M2059 6153 c-88 -94 -180 -226 -166 -239 23 -24 228 239 215 276 -2
6 -24 -11 -49 -37z"/>
<path d="M6142 6063 c-42 -108 -71 -209 -63 -220 20 -27 206 -173 221 -173 8
0 52 98 74 164 28 87 24 98 -63 189 -44 45 -93 90 -109 100 l-30 17 -30 -77z"/>
<path d="M5546 5898 c-13 -29 -105 -267 -205 -528 -101 -261 -188 -488 -195
-505 -8 -16 -98 -250 -201 -520 -103 -269 -193 -503 -199 -520 -7 -16 -19 -46
-26 -65 -6 -19 -16 -44 -21 -55 -40 -90 -309 -813 -309 -829 0 -7 33 -30 73
-51 501 -260 851 -508 1168 -826 218 -219 313 -359 374 -553 l32 -100 26 84
c14 47 58 195 97 330 39 135 77 265 84 290 15 46 38 127 42 145 1 6 20 71 42
145 22 74 71 239 107 365 37 127 87 298 111 380 25 83 46 157 48 165 2 8 30
103 61 210 31 107 83 300 116 429 56 218 60 241 58 337 -1 57 -5 122 -9 146
-5 24 -10 59 -13 78 -58 409 -366 880 -792 1213 -104 81 -280 199 -378 252
l-67 37 -24 -54z m419 -921 c8 -18 33 -61 55 -96 22 -34 40 -64 40 -65 0 -1
27 -52 61 -112 183 -328 288 -568 323 -738 16 -73 23 -264 12 -296 -3 -8 -7
-31 -10 -50 -15 -98 -75 -241 -124 -293 -31 -33 -91 -66 -109 -60 -7 2 -20 0
-30 -6 -17 -9 -18 -33 -19 -328 0 -321 -8 -475 -24 -519 -13 -33 -36 -30 -95
10 l-51 34 2 103 c5 265 5 636 0 657 -12 52 -21 70 -71 147 -28 44 -90 120
-137 168 l-86 88 -22 -58 c-12 -32 -65 -175 -117 -318 -138 -377 -135 -372
-211 -322 -58 39 -125 103 -140 133 -9 17 -1 51 44 180 30 87 63 184 74 214
10 30 56 161 103 290 126 349 274 760 290 805 187 526 178 506 208 479 10 -9
25 -30 34 -47z"/>
<path d="M5986 4390 c-51 -114 -196 -522 -189 -534 4 -6 46 -58 93 -116 109
-135 192 -218 225 -226 119 -30 215 221 170 441 -26 125 -224 495 -265 495 -4
0 -19 -27 -34 -60z"/>
<path d="M1740 5790 c-6 -11 -7 -20 -2 -20 10 0 32 21 32 32 0 16 -19 8 -30
-12z"/>
<path d="M1758 5715 c-43 -40 -65 -46 -48 -14 7 11 9 23 6 26 -11 11 -24 -9
-35 -51 -6 -25 -37 -84 -69 -133 -98 -147 -125 -191 -239 -383 -161 -270 -534
-915 -620 -1070 -14 -25 -49 -85 -78 -135 -216 -369 -285 -494 -285 -515 0
-13 107 55 131 83 63 75 294 454 516 847 11 19 43 74 72 122 28 48 51 89 51
91 0 3 17 34 39 68 21 35 49 84 62 109 14 25 32 56 40 70 9 14 48 81 86 150
39 69 111 197 160 285 50 88 103 183 118 210 15 28 40 73 55 100 72 131 90
164 90 169 0 13 -17 3 -52 -29z"/>
<path d="M6621 5627 c-19 -24 -71 -188 -71 -227 0 -26 14 -60 48 -116 67 -110
76 -124 83 -124 9 0 73 211 76 250 3 43 -53 163 -95 203 -24 23 -31 26 -41 14z"/>
<path d="M6855 5032 c-40 -129 -41 -241 -4 -319 l25 -52 32 112 c18 62 32 126
32 142 0 35 -41 215 -49 215 -4 0 -19 -44 -36 -98z"/>
<path d="M6915 4478 c-23 -81 -33 -145 -24 -159 8 -13 33 63 44 136 4 22 9 48
12 58 2 9 0 17 -6 17 -6 0 -17 -24 -26 -52z"/>
<path d="M1067 3397 c-76 -137 -104 -204 -91 -217 6 -6 58 -13 116 -15 l104
-5 47 87 c26 49 67 125 92 171 l46 82 -128 0 -128 0 -58 -103z"/>
<path d="M783 3477 c-32 -6 -52 -19 -80 -51 -42 -48 -139 -212 -149 -253 l-7
-25 54 7 c73 9 107 31 151 95 49 74 121 218 113 229 -6 11 -22 11 -82 -2z"/>
<path d="M1617 3304 c-79 -157 -87 -183 -64 -202 12 -11 266 -66 272 -60 9 9
138 283 150 319 20 55 10 65 -68 73 -34 4 -78 9 -97 12 -19 2 -53 6 -76 8
l-40 4 -77 -154z"/>
<path d="M452 3370 c-65 -61 -189 -290 -156 -290 11 0 50 23 66 41 42 43 126
188 143 247 8 29 -22 30 -53 2z"/>
<path d="M2350 3228 c-26 -57 -66 -144 -88 -194 l-40 -92 122 -36 c66 -20 146
-41 176 -46 51 -10 56 -9 72 12 35 47 158 314 158 344 0 7 -5 16 -11 20 -15 9
-310 94 -327 94 -7 0 -35 -46 -62 -102z"/>
<path d="M243 3187 c-47 -70 -99 -167 -89 -167 6 0 83 114 100 148 24 46 16
59 -11 19z"/>
<path d="M704 3098 c-5 -7 -19 -33 -32 -57 -12 -24 -33 -62 -46 -85 -89 -160
-156 -297 -162 -332 -4 -30 -1 -50 11 -75 34 -65 205 -255 351 -388 32 -29 75
-68 94 -85 133 -122 346 -286 372 -286 17 0 61 76 218 370 90 170 328 648 357
717 l21 51 -26 10 c-55 21 -334 77 -482 97 -25 3 -70 10 -100 15 -30 5 -95 14
-145 20 -49 6 -106 12 -125 15 -19 2 -73 7 -120 10 -47 3 -106 8 -132 11 -31
3 -49 1 -54 -8z"/>
<path d="M404 3059 c-45 -9 -95 -23 -110 -31 -26 -13 -29 -18 -28 -63 1 -34
15 -80 42 -144 50 -116 57 -124 81 -93 19 26 191 336 191 345 0 11 -91 3 -176
-14z"/>
<path d="M3198 3063 c-18 -22 -111 -230 -133 -300 -9 -28 -15 -60 -13 -70 4
-21 143 -80 278 -117 102 -28 99 -29 140 59 33 74 106 256 114 288 6 25 3 29
-26 41 -46 19 -328 116 -337 116 -4 0 -15 -8 -23 -17z"/>
<path d="M138 2903 c-30 -32 -88 -148 -88 -177 0 -34 47 20 87 100 42 86 43
121 1 77z"/>
<path d="M2003 2868 c-42 -45 -118 -189 -337 -632 -277 -560 -266 -538 -254
-553 51 -62 1063 -674 1089 -658 3 3 23 44 44 92 21 49 50 115 65 148 15 33
76 172 135 309 184 429 235 566 222 600 -5 12 -181 155 -467 381 -41 33 -80
64 -86 70 -6 5 -28 24 -49 40 -22 17 -46 37 -54 45 -26 26 -119 100 -156 126
-88 60 -120 66 -152 32z"/>
<path d="M2320 2811 c0 -7 52 -41 82 -53 18 -7 31 12 20 29 -8 12 -102 34
-102 24z"/>
<path d="M177 2756 c-32 -34 -78 -132 -85 -178 -10 -81 52 -28 103 85 40 90
29 144 -18 93z"/>
<path d="M4036 2723 c-12 -24 -74 -175 -137 -336 l-19 -48 129 -63 c135 -66
233 -101 254 -93 13 5 91 193 127 306 15 47 17 67 9 77 -22 27 -309 184 -336
184 -7 0 -19 -12 -27 -27z"/>
<path d="M2550 2722 c-31 -25 -30 -70 4 -99 41 -35 85 -8 86 54 0 57 -46 80
-90 45z"/>
<path d="M246 2607 c-23 -34 -63 -129 -70 -162 -4 -20 -1 -38 8 -50 14 -20 15
-20 39 3 24 23 87 138 87 160 0 20 -22 61 -36 66 -8 3 -20 -5 -28 -17z"/>
<path d="M2757 2592 c-9 -10 -22 -32 -28 -49 -13 -38 -2 -62 41 -93 l30 -22
20 44 c25 55 25 73 -1 109 -24 34 -39 36 -62 11z"/>
<path d="M350 2448 c-23 -25 -59 -91 -71 -131 -6 -22 -3 -33 15 -54 30 -34 47
-27 76 34 37 77 49 125 37 151 -13 28 -31 28 -57 0z"/>
<path d="M2953 2442 c-7 -4 -21 -28 -32 -52 -18 -40 -18 -46 -5 -61 24 -27 53
-30 75 -8 10 10 19 25 20 32 0 6 2 20 4 29 3 17 -30 68 -43 68 -4 0 -12 -4
-19 -8z"/>
<path d="M4805 2338 c-3 -7 -27 -75 -54 -151 -28 -76 -57 -164 -66 -195 l-17
-57 26 -20 c15 -11 84 -53 154 -92 102 -58 128 -70 135 -58 4 8 36 98 71 201
l63 186 -71 52 c-74 54 -219 146 -230 146 -4 0 -9 -6 -11 -12z"/>
<path d="M497 2293 c-18 -21 -67 -129 -67 -149 0 -22 46 -68 62 -62 19 8 78
129 78 161 0 20 -36 67 -52 67 -3 0 -12 -8 -21 -17z"/>
<path d="M3101 2279 c-33 -35 -37 -77 -10 -105 12 -13 28 -24 35 -24 28 0 50
82 34 124 -12 32 -33 33 -59 5z"/>
<path d="M3245 2146 c-19 -29 -24 -101 -8 -117 28 -28 65 22 65 90 0 30 -14
50 -34 51 -4 0 -15 -11 -23 -24z"/>
<path d="M629 2073 c-36 -75 -39 -105 -14 -133 30 -33 51 -25 79 33 43 87 47
112 24 142 -33 42 -53 33 -89 -42z"/>
<path d="M3060 2043 c-54 -116 -148 -327 -300 -680 l-178 -413 195 -145 c195
-146 354 -257 384 -268 11 -3 20 2 27 16 26 55 50 113 103 247 223 565 269
682 275 691 13 21 -8 61 -83 157 -124 158 -372 422 -398 422 -7 0 -18 -12 -25
-27z"/>
<path d="M3361 2023 c-24 -47 -21 -123 7 -123 24 0 41 32 42 76 0 55 -29 84
-49 47z"/>
<path d="M838 1963 c-22 -25 -56 -95 -62 -126 -3 -19 2 -30 19 -41 43 -28 62
-20 95 37 35 61 38 95 10 125 -25 27 -42 28 -62 5z"/>
<path d="M3451 1879 c-12 -33 1 -99 19 -99 12 0 32 54 33 92 2 27 -2 34 -19
36 -17 2 -24 -5 -33 -29z"/>
<path d="M5387 1853 c-14 -32 -45 -117 -70 -190 l-45 -132 27 -24 c56 -52 175
-147 183 -147 5 0 16 17 25 38 22 52 103 321 103 341 0 25 -157 171 -185 171
-7 0 -24 -26 -38 -57z"/>
<path d="M1027 1812 c-12 -13 -67 -126 -67 -137 0 -12 72 -54 84 -49 8 3 29
34 46 69 35 72 32 93 -19 120 -26 13 -30 13 -44 -3z"/>
<path d="M3542 1793 c-18 -34 -21 -92 -5 -105 18 -14 30 0 39 49 11 57 -13 97
-34 56z"/>
<path d="M3613 1712 c-14 -9 -26 -99 -14 -107 13 -7 30 25 35 64 4 34 -5 53
-21 43z"/>
<path d="M1210 1648 c-49 -81 -47 -132 6 -157 19 -8 27 -7 40 7 24 24 63 112
57 128 -5 13 -63 54 -77 54 -3 0 -15 -15 -26 -32z"/>
<path d="M3663 1622 c-7 -5 -15 -30 -18 -58 l-5 -49 21 43 c22 46 23 77 2 64z"/>
<path d="M902 1578 c-57 -84 -142 -264 -145 -306 -2 -22 4 -27 33 -35 54 -14
181 -57 215 -72 66 -30 208 -86 210 -83 9 9 136 270 133 272 -64 51 -392 266
-406 266 -6 0 -24 -19 -40 -42z"/>
<path d="M1431 1531 c-19 -12 -49 -111 -42 -139 18 -65 75 -45 120 42 23 44
23 47 6 66 -21 23 -68 41 -84 31z"/>
<path d="M3686 1522 c-4 -7 -11 -26 -16 -42 -8 -28 -7 -30 15 -24 17 4 24 1
27 -13 3 -15 5 -16 10 -2 8 21 -25 98 -36 81z"/>
<path d="M5785 1518 c-45 -138 -107 -337 -108 -348 -1 -15 93 -160 104 -160 3
0 22 57 43 128 21 70 46 151 56 180 21 61 21 65 -33 150 -38 61 -54 74 -62 50z"/>
<path d="M3574 1403 c-33 -79 -244 -615 -299 -761 -65 -173 -65 -158 8 -269
23 -35 46 -63 52 -63 17 0 106 214 235 560 23 63 46 124 50 135 27 64 60 185
60 217 0 77 -35 191 -64 210 -19 13 -25 9 -42 -29z"/>
<path d="M1637 1382 c-7 -9 -21 -35 -29 -57 -14 -36 -14 -44 -1 -68 17 -33 51
-49 75 -35 21 10 58 79 58 107 0 38 -80 79 -103 53z"/>
<path d="M1398 1278 c-26 -40 -80 -162 -85 -193 -6 -37 7 -48 191 -152 178
-102 183 -107 150 -158 -29 -45 -28 -46 201 -147 165 -73 338 -139 351 -134
21 8 63 78 106 177 l40 93 -27 22 c-14 11 -48 31 -75 45 -27 13 -50 27 -50 32
0 4 -5 7 -11 7 -7 0 -67 33 -133 74 -67 41 -167 99 -221 129 -119 65 -139 76
-273 156 -127 75 -144 80 -164 49z"/>
<path d="M1862 1240 c-10 -11 -23 -36 -29 -54 -13 -42 6 -88 42 -104 22 -10
27 -8 55 33 41 60 49 100 22 114 -54 29 -71 31 -90 11z"/>
<path d="M744 1164 c-12 -17 -14 -28 -7 -35 13 -13 43 15 43 42 0 27 -16 24
-36 -7z"/>
<path d="M815 1140 c-14 -27 -14 -31 0 -36 27 -11 47 4 43 33 -4 38 -24 39
-43 3z"/>
<path d="M5937 1133 c-11 -23 -43 -127 -51 -168 -2 -5 -8 -35 -14 -65 -19 -92
-22 -130 -12 -130 12 0 52 132 83 273 24 106 21 144 -6 90z"/>
<path d="M931 1117 c-6 -8 -12 -24 -13 -38 -3 -20 2 -25 24 -27 22 -3 29 2 34
22 4 16 1 32 -6 41 -15 18 -24 19 -39 2z"/>
<path d="M2088 1113 c-24 -30 -36 -68 -31 -96 6 -29 46 -67 69 -67 17 0 51 53
60 94 6 26 2 34 -27 58 -39 33 -51 34 -71 11z"/>
<path d="M758 1058 c9 -9 15 -9 24 0 9 9 7 12 -12 12 -19 0 -21 -3 -12 -12z"/>
<path d="M1052 1050 c-17 -28 -15 -48 7 -60 30 -15 65 17 56 53 -9 33 -44 37
-63 7z"/>
<path d="M822 1038 c-8 -8 -8 -15 -1 -24 14 -17 39 -6 39 17 0 21 -20 25 -38
7z"/>
<path d="M912 1014 c-26 -18 -19 -44 13 -44 26 0 40 33 21 49 -9 7 -19 6 -34
-5z"/>
<path d="M1201 991 c-28 -28 -26 -49 4 -63 35 -16 77 13 73 50 -4 36 -47 43
-77 13z"/>
<path d="M2306 981 c-10 -11 -24 -37 -32 -58 -13 -37 -12 -39 17 -65 40 -37
57 -35 76 10 24 57 25 86 2 111 -25 26 -41 27 -63 2z"/>
<path d="M985 961 c-6 -20 3 -51 15 -51 10 0 28 22 28 35 0 13 -18 35 -29 35
-4 0 -10 -8 -14 -19z"/>
<path d="M1080 909 c-9 -15 -8 -24 1 -35 10 -13 14 -12 30 2 11 10 19 25 19
36 0 25 -36 23 -50 -3z"/>
<path d="M1353 923 c-18 -7 -16 -58 3 -74 14 -11 20 -10 40 14 33 39 32 67 -3
66 -16 0 -34 -3 -40 -6z"/>
<path d="M1197 872 c-23 -25 -22 -52 2 -52 32 0 49 41 27 60 -9 7 -18 5 -29
-8z"/>
<path d="M2507 878 c-21 -16 -47 -79 -47 -113 0 -27 32 -47 58 -37 19 7 43 59
44 94 1 40 -31 73 -55 56z"/>
<path d="M1487 873 c-13 -24 -15 -62 -4 -77 13 -17 14 -17 30 -1 9 9 17 26 17
39 0 32 -31 60 -43 39z"/>
<path d="M1295 811 c-8 -26 4 -51 25 -51 23 0 33 26 20 51 -13 24 -37 25 -45
0z"/>
<path d="M1574 767 c-37 -55 -56 -99 -47 -108 12 -12 32 4 36 28 2 12 15 32
30 43 16 13 27 31 27 46 0 34 -21 30 -46 -9z"/>
<path d="M5802 778 c-30 -38 -60 -152 -48 -184 5 -14 9 -14 23 -3 24 21 43 73
50 140 5 58 -3 74 -25 47z"/>
<path d="M1414 745 c-10 -16 -13 -30 -8 -35 14 -14 59 13 59 35 0 30 -31 30
-51 0z"/>
<path d="M2651 742 c-29 -41 -33 -77 -11 -104 21 -27 39 -17 65 38 34 73 -10
127 -54 66z"/>
<path d="M2369 693 c-47 -107 -79 -195 -79 -212 0 -22 108 -74 285 -136 121
-43 144 -46 170 -25 16 14 75 127 75 145 0 7 -26 29 -57 50 -93 62 -273 175
-279 175 -3 0 -22 11 -42 25 -20 14 -40 25 -45 25 -4 0 -17 -21 -28 -47z"/>
<path d="M2801 654 c-39 -50 -37 -124 4 -124 19 0 44 43 51 88 5 34 3 42 -14
51 -17 9 -24 7 -41 -15z"/>
<path d="M1653 663 c-18 -6 -16 -48 3 -63 12 -11 18 -11 29 1 26 26 1 73 -32
62z"/>
<path d="M1764 589 c-21 -24 -11 -49 20 -49 26 0 40 22 31 50 -7 22 -31 21
-51 -1z"/>
<path d="M2916 555 c-30 -46 -15 -113 19 -85 19 16 45 68 45 92 0 28 -44 23
-64 -7z"/>
<path d="M1885 544 c-20 -21 -16 -48 9 -52 24 -5 46 22 39 48 -6 24 -26 26
-48 4z"/>
<path d="M1996 488 c-17 -24 -13 -38 13 -38 22 0 41 19 41 42 0 25 -35 23 -54
-4z"/>
<path d="M3024 486 c-20 -31 -25 -97 -7 -103 17 -6 46 43 46 78 0 45 -18 56
-39 25z"/>
<path d="M2107 453 c-11 -10 -8 -41 4 -49 16 -9 43 21 36 40 -7 16 -28 21 -40
9z"/>
<path d="M2841 397 c-12 -24 -22 -61 -24 -83 l-2 -39 90 -23 c49 -12 117 -25
150 -28 33 -3 63 -8 67 -10 4 -2 9 0 12 4 3 5 -14 27 -37 49 -59 57 -209 173
-223 173 -7 0 -22 -20 -33 -43z"/>
<path d="M3096 406 c-33 -69 -10 -88 32 -26 27 40 28 60 3 60 -11 0 -25 -13
-35 -34z"/>
<path d="M2224 406 c-9 -23 0 -51 16 -51 10 0 15 10 15 29 0 32 -21 47 -31 22z"/>
<path d="M3172 384 c-19 -20 -40 -77 -35 -91 9 -24 24 -13 44 32 22 49 16 86
-9 59z"/>
<path d="M2317 363 c-12 -11 -8 -40 7 -52 12 -10 18 -7 31 13 9 14 14 30 10
36 -7 11 -38 14 -48 3z"/>
<path d="M2423 317 c-13 -28 -1 -52 21 -44 20 8 22 67 3 67 -8 0 -19 -11 -24
-23z"/>
<path d="M3213 308 c-16 -21 -22 -44 -13 -58 6 -9 13 -4 25 20 17 33 8 63 -12
38z"/>
<path d="M2512 280 c-17 -28 -15 -40 6 -40 23 0 56 35 47 49 -10 18 -39 13
-53 -9z"/>
<path d="M3252 253 l-20 -47 21 -11 c12 -7 24 -10 26 -9 5 4 3 106 -2 111 -3
2 -13 -18 -25 -44z"/>
<path d="M2605 260 c-17 -19 -15 -50 4 -50 15 0 44 47 36 60 -9 15 -20 12 -40
-10z"/>
<path d="M2694 225 c-7 -30 -1 -40 19 -32 17 6 17 49 0 54 -7 3 -15 -7 -19
-22z"/>
<path d="M2765 206 c-23 -34 -11 -46 17 -18 16 16 19 25 11 33 -8 8 -16 4 -28
-15z"/>
<path d="M2830 181 c-13 -26 -13 -31 5 -31 12 0 35 28 35 44 0 14 -30 4 -40
-13z"/>
<path d="M2913 172 c-6 -4 -14 -18 -18 -31 -9 -29 11 -25 32 6 14 22 6 37 -14
25z"/>
<path d="M2984 172 c-15 -10 -26 -60 -14 -67 14 -9 43 41 33 59 -4 8 -13 12
-19 8z"/>
<path d="M3039 150 c-2 -14 -2 -38 0 -52 2 -15 30 31 31 50 0 14 -29 17 -31 2z"/>
<path d="M3102 153 c1 -5 -4 -21 -11 -37 -15 -36 -2 -48 41 -36 15 5 31 9 33
9 3 1 5 3 5 6 0 54 1 52 -20 25 l-19 -25 -7 33 c-4 17 -10 32 -15 32 -5 0 -8
-3 -7 -7z"/>
<path d="M3202 120 c-7 -11 -8 -20 -3 -20 9 0 24 30 18 36 -1 2 -8 -6 -15 -16z"/>
</g>
</svg>
